<svg xmlns="http://www.w3.org/2000/svg" viewBox="0 0 512 512"><title>Artboard 134</title><g id="Law"><rect x="213.33333" y="128" width="85.33333" height="106.66667" rx="42.66662" ry="42.66662" style="fill:gold"/><path d="M160,42.66667h0a10.66666,10.66666,0,0,1,10.66666,10.66665L213.33333,288a10.66667,10.66667,0,0,1-10.66665,10.66667h0A10.66666,10.66666,0,0,1,192,288L149.33333,53.33332A10.66666,10.66666,0,0,1,160,42.66667Z" style="fill:#ffea21"/><path d="M42.66664,277.33333H256a21.33331,21.33331,0,0,1,21.33331,21.33331v.00015A127.99987,127.99987,0,0,1,149.33346,426.66667h-.00026A127.99987,127.99987,0,0,1,21.33333,298.66679v-.00015A21.33331,21.33331,0,0,1,42.66664,277.33333Z" style="fill:#ffbe00"/><rect x="42.66667" y="277.33333" width="106.66667" height="21.33333" rx="10.66666" ry="10.66666" style="fill:#ffea21"/><path d="M170.66667,320H85.33333a21.33334,21.33334,0,0,0,0,42.66667H128a21.33333,21.33333,0,0,1,0,42.66666,21.13712,21.13712,0,0,0-19.9349,14.40495A126.21162,126.21162,0,0,0,192,419.22656V341.33333A21.33272,21.33272,0,0,0,170.66667,320Z" style="fill:#ffa300"/><rect x="85.33335" y="42.66667" width="149.33331" height="42.66667" rx="21.33331" ry="21.33331" style="fill:#ffbe00"/><rect x="106.66667" y="64" width="64" height="21.33333" rx="10.66666" ry="10.66666" style="fill:#ffa300"/><rect x="149.33335" y="42.66667" width="63.99996" height="42.66667" rx="21.33331" ry="21.33331" style="fill:#ffa300"/><path d="M367.04557,442.34766,349.175,436.39112A42.66668,42.66668,0,0,1,320,395.91371l.00006-72.29271c0-34.65548-25.95047-65.71852-60.55854-67.53056A64.00306,64.00306,0,0,0,192,320v75.91373a42.66665,42.66665,0,0,1-29.17495,40.47738l-17.87062,5.95655a24.79576,24.79576,0,0,0,7.84114,48.319H359.20443a24.79576,24.79576,0,0,0,7.84114-48.319Z" style="fill:gold"/><path d="M367.04557,442.34766l-17.87109-5.957A42.66694,42.66694,0,0,1,320,395.9132V341.33331A21.33331,21.33331,0,0,0,298.66669,320h0a21.33331,21.33331,0,0,0-21.33332,21.33331v54.57945a42.66755,42.66755,0,0,1-29.17489,40.478L234.66667,440.888l4.3789,1.45964A24.79554,24.79554,0,0,1,256,465.87109c0,12.46615-9.35286,22.34506-21.33333,24.09636a23.42948,23.42948,0,0,0,3.46224.69922H359.20443a24.79576,24.79576,0,0,0,7.84114-48.319Z" style="fill:#ffbe00"/><path d="M138.66668,42.66667h0A10.66665,10.66665,0,0,0,128,53.33332L85.33333,288A10.66668,10.66668,0,0,0,96,298.66667h0A10.66666,10.66666,0,0,0,106.66667,288l42.66666-234.6667A10.66665,10.66665,0,0,0,138.66668,42.66667Z" style="fill:#fffc74"/><rect x="213.33333" y="21.33333" width="85.33333" height="106.66667" rx="42.66662" ry="42.66662" style="fill:gold"/><rect x="256" y="42.66667" width="42.66667" height="64" rx="21.33331" ry="21.33331" style="fill:#ffbe00"/><rect x="234.66667" y="213.33333" width="42.66667" height="64" style="fill:gold"/><rect x="192" y="106.66667" width="128" height="42.66667" rx="21.33331" ry="21.33331" style="fill:gold"/><path d="M373.33332,42.66667h0A10.66665,10.66665,0,0,1,384,53.33332L426.66667,288A10.66668,10.66668,0,0,1,416,298.66667h0A10.66666,10.66666,0,0,1,405.33333,288L362.66667,53.33332A10.66665,10.66665,0,0,1,373.33332,42.66667Z" style="fill:#ffea21"/><rect x="277.33333" y="42.66667" width="149.33331" height="42.66667" rx="21.33331" ry="21.33331" style="fill:#ffea21"/><rect x="298.66667" y="64" width="85.33333" height="21.33333" rx="10.66666" ry="10.66666" style="fill:#ffbe00"/><path d="M256,277.33333H469.33336a21.33331,21.33331,0,0,1,21.33331,21.33331v.00015A127.99987,127.99987,0,0,1,362.66679,426.66667h-.00026A127.99987,127.99987,0,0,1,234.66667,298.66679v-.00015A21.33331,21.33331,0,0,1,256,277.33333Z" style="fill:#ffea21"/><rect x="256" y="277.33333" width="213.33333" height="21.33333" rx="10.66666" ry="10.66666" style="fill:#fffc74"/><path d="M352,42.66667h0a10.66666,10.66666,0,0,0-10.66666,10.66665L298.66667,288a10.66667,10.66667,0,0,0,10.66665,10.66667h0A10.66666,10.66666,0,0,0,320,288l42.66667-234.6667A10.66666,10.66666,0,0,0,352,42.66667Z" style="fill:#ffff9d"/><circle cx="405.33333" cy="64" r="21.33333" style="fill:#ffbe00"/><path d="M384,405.33333a21.33272,21.33272,0,0,0-21.33333,21.33334,127.93524,127.93524,0,0,0,124.05989-96.99479A20.9564,20.9564,0,0,0,469.33333,320H362.66667a21.33334,21.33334,0,1,0,0,42.66667H384a21.33333,21.33333,0,0,1,0,42.66666Z" style="fill:#ffbe00"/><rect x="256" y="149.33333" width="42.66667" height="64" rx="21.33331" ry="21.33331" style="fill:#ffbe00"/><path d="M234.66667,106.66667a21.33333,21.33333,0,0,1,0,42.66666h64A21.33331,21.33331,0,0,0,320,128v0a21.33331,21.33331,0,0,0-21.33331-21.33331Z" style="fill:#ffbe00"/><circle cx="266.66667" cy="245.33333" r="10.66667" style="fill:#ffbe00"/></g></svg>