<?xml version="1.0" encoding="iso-8859-1"?>
<!-- Generator: Adobe Illustrator 19.0.0, SVG Export Plug-In . SVG Version: 6.00 Build 0)  -->
<svg xmlns="http://www.w3.org/2000/svg" xmlns:xlink="http://www.w3.org/1999/xlink" version="1.1" id="Capa_1" x="0px" y="0px" viewBox="0 0 512.004 512.004" style="enable-background:new 0 0 512.004 512.004;" xml:space="preserve">
<polygon style="fill:#F1F4FB;" points="227.946,127.743 227.946,103.695 211.914,71.63 219.93,55.598 195.882,7.501 139.769,23.534   155.801,63.614 99.688,135.759 59.607,135.759 67.624,199.888 19.527,199.888 67.624,264.017 91.672,247.985 91.672,312.114   147.785,496.485 171.833,504.501 211.914,456.404 219.93,368.227 356.204,247.985 356.204,167.824 300.091,167.824 "/>
<path style="fill:#DDE3F1;" d="M171.113,490.653L115.72,308.548v-47.387c0-4.469-0.978-8.963-3.194-12.844  c-8.644-15.132-24.808-20.314-38.562-15.926l-7.155-9.539c6.051-1.617,11.562-4.987,15.782-9.774  c6.083-6.897,8.916-16.083,7.766-25.183l-3.507-28.088h12.837c7.419,0,14.423-3.425,18.978-9.282l53.27-68.488  c6.983-8.952,8.705-21.066,4.486-31.626l-13.406-33.52l-23.245,6.641l0,0l16.032,40.08l-56.113,72.145l0,0h-40.08l0,0l8.016,64.129  l0,0H19.527l48.096,64.128l0,0l24.048-16.031l0,0v64.128l0,0l56.113,184.371l0,0l18.858,6.286c2.489,0.829,5.15,0.333,7.211-1.161  L171.113,490.653z"/>
<path style="fill:#F1F4FB;" d="M468.43,111.711l-48.097,32.064v24.048h-37.654c-1.583,0-3.13-0.468-4.447-1.346l-22.029-14.686  l24.048,40.081l32.065,8.016l16.032,48.097l64.129-112.226L468.43,111.711z"/>
<g>
	<path style="fill:#FFA000;" d="M298.275,166.815l-70.329-39.071v-0.001v-24.048l-16.032-32.064l0,0l8.015-16.032l0,0L195.882,7.501   l0,0L139.77,23.533l0,0l16.032,40.08l-56.113,72.145l0,0h-40.08l0,0l4.008,32.064H302.17   C300.806,167.824,299.466,167.476,298.275,166.815z"/>
	<polygon style="fill:#FFA000;" points="492.478,135.759 492.478,135.759 468.43,111.711 420.333,143.776 420.333,167.824    474.156,167.824  "/>
</g>
<polygon style="fill:#A0D755;" points="101.431,344.179 147.785,496.485 147.785,496.485 171.833,504.501 211.914,456.404   219.93,368.227 219.93,368.227 247.185,344.179 "/>
<path style="fill:#FF8A00;" d="M99.687,159.808c7.419,0,14.423-3.425,18.978-9.282l53.27-68.488  c6.983-8.952,8.705-21.066,4.486-31.626l-13.406-33.52l-23.245,6.641l0,0l16.032,40.08l-56.113,72.145l0,0h-40.08l0,0l4.008,32.064  h24.235l-1.001-8.016h12.836V159.808z"/>
<path style="fill:#91C84B;" d="M147.785,496.485L147.785,496.485l24.048,8.016c0,0,0,0,2.02-2.891l-2.74-10.958l-44.554-146.474  h-25.128L147.785,496.485z"/>
<path d="M497.781,130.456l-24.048-24.049c-2.528-2.527-6.488-2.92-9.463-0.937l-48.097,32.065c-2.086,1.391-3.34,3.732-3.34,6.24  v16.548h-30.31l-22.089-14.726c-0.27-0.185-0.551-0.35-0.841-0.497c-0.478-0.242-0.977-0.431-1.486-0.564  c-0.005-0.001-0.009-0.002-0.013-0.003c-1.06-0.276-2.186-0.323-3.302-0.108c-0.363,0.07-0.723,0.167-1.076,0.291  c-0.004,0.002-0.008,0.003-0.011,0.004c-1.116,0.394-2.097,1.036-2.888,1.854l-0.001,0.001c-0.003,0.003-0.006,0.006-0.009,0.01  c-0.238,0.247-0.458,0.51-0.66,0.785c0,0.001-0.001,0.002-0.002,0.003c-0.002,0.003-0.005,0.007-0.007,0.01  c-0.001,0.002-0.003,0.004-0.004,0.006c0,0.001-0.002,0.003-0.002,0.004c-0.88,1.214-1.397,2.694-1.425,4.269  c0,0.001,0,0.001,0,0.001c0,0.005,0,0.01,0,0.016c0,0,0,0.001,0,0.002c0,0.009,0,0.019,0,0.027c0,0.001,0,0.002,0,0.003  c0,0.003,0,0.006,0,0.009s0,0.006,0,0.009s0,0.006,0,0.009s0,0.007,0,0.011c0,0.002,0,0.004,0,0.007c0,0.004,0,0.008,0,0.012  c0,0.001,0,0.004,0,0.006c0,0.006,0,0.012,0,0.018v8.532h-46.669l-66.589-36.993v-19.636c0-1.164-0.271-2.313-0.792-3.354  L220.299,71.63l6.339-12.678c1.056-2.111,1.056-4.597,0-6.708L202.589,4.147c-1.613-3.228-5.295-4.85-8.769-3.857l-56.113,16.032  c-2.041,0.583-3.739,2.003-4.673,3.909c-0.934,1.905-1.018,4.118-0.229,6.088l14.434,36.087L96.02,128.26H59.607  c-2.151,0-4.199,0.924-5.623,2.537s-2.086,3.759-1.819,5.894l6.962,55.699h-39.6c-2.841,0-5.438,1.605-6.708,4.146  c-1.271,2.541-0.997,5.581,0.708,7.854l48.097,64.129c2.389,3.185,6.849,3.948,10.16,1.741l12.388-8.259v50.115  c0,0.74,0.109,1.476,0.325,2.184l56.112,184.371c0.708,2.325,2.498,4.163,4.804,4.932l24.048,8.016  c0.779,0.26,1.579,0.385,2.371,0.385c2.186,0,4.312-0.958,5.763-2.698l40.081-48.097c0.974-1.169,1.57-2.607,1.708-4.123  l7.746-85.206l134.038-118.269c1.613-1.424,2.538-3.472,2.538-5.624v-69.116l10.117,16.862c1.023,1.706,2.683,2.935,4.612,3.417  l28.07,7.018l14.73,44.19c0.936,2.806,3.433,4.801,6.376,5.092c2.939,0.29,5.783-1.174,7.25-3.742l64.129-112.226  C500.668,136.544,500.173,132.847,497.781,130.456z M348.704,244.601l-104.355,92.078h-88.548c-4.142,0-7.5,3.357-7.5,7.5  c0,4.142,3.358,7.5,7.5,7.5h71.548l-12.381,10.924c-1.437,1.268-2.333,3.037-2.507,4.945l-7.805,85.851l-35.307,42.369  l-15.517-5.172L111.553,351.68h12.186c4.142,0,7.5-3.358,7.5-7.5c0-4.143-3.358-7.5-7.5-7.5h-16.751l-7.816-25.681v-63.013  c0-2.766-1.522-5.307-3.961-6.613c-2.438-1.305-5.398-1.161-7.699,0.372l-18.145,12.097l-34.84-46.453h33.097  c2.151,0,4.199-0.924,5.623-2.537c1.424-1.612,2.086-3.759,1.819-5.894l-2.954-23.635h163.85c4.142,0,7.5-3.357,7.5-7.5  c0-4.142-3.358-7.5-7.5-7.5H70.236l-2.133-17.064h31.584c2.314,0,4.499-1.068,5.92-2.896l56.113-72.145  c1.636-2.103,2.033-4.916,1.043-7.39l-12.946-32.366l42.139-12.04l19.588,39.175l-6.339,12.679c-1.056,2.111-1.056,4.597,0,6.708  l15.24,30.48v22.278c0,2.724,1.477,5.233,3.858,6.556l72.146,40.081c1.114,0.619,2.368,0.943,3.642,0.943h48.613V244.601z   M430.16,229.699l-10.728-32.183c-0.811-2.433-2.809-4.282-5.296-4.904l-29.05-7.263l-6.078-10.13  c0.41,0.068,0.826,0.104,1.245,0.104h80.979L430.16,229.699z M469.803,160.323h-41.97v-12.534l39.641-26.428l15.65,15.65  L469.803,160.323z"/>
<g>
</g>
<g>
</g>
<g>
</g>
<g>
</g>
<g>
</g>
<g>
</g>
<g>
</g>
<g>
</g>
<g>
</g>
<g>
</g>
<g>
</g>
<g>
</g>
<g>
</g>
<g>
</g>
<g>
</g>
</svg>
