<?xml version="1.0" encoding="utf-8"?>
<!-- Generator: Adobe Illustrator 16.0.0, SVG Export Plug-In . SVG Version: 6.00 Build 0)  -->
<!DOCTYPE svg PUBLIC "-//W3C//DTD SVG 1.1//EN" "http://www.w3.org/Graphics/SVG/1.1/DTD/svg11.dtd">
<svg version="1.1" id="Layer_1" xmlns="http://www.w3.org/2000/svg" xmlns:xlink="http://www.w3.org/1999/xlink" x="0px" y="0px"
	 width="128px" height="128px" viewBox="0 0 128 128" enable-background="new 0 0 128 128" xml:space="preserve">
<g>
	<g>
		<g>
			<path fill="#282D33" d="M19.258,108.084h-4.12l-0.035-2.669V11.593h0.195C16.398,5.045,22.229,0,29.126,0h83.771v93.578h-4V4
				H29.126c-5.41,0-9.902,4.322-10.013,9.634l-0.011,0.544v81.569c2.548-2.57,6.101-4.169,10.023-4.169v4
				c-5.527,0-10.023,4.413-10.023,9.837c0,0.113,0.009,0.223,0.017,0.333L19.258,108.084z"/>
		</g>
		<g>
			<g>
				<path fill="#282D33" d="M42.703,119.253H29.127c-7.732,0-14.023-6.208-14.023-13.838s6.291-13.837,14.023-13.837h22.59v4h-22.59
					c-5.527,0-10.023,4.413-10.023,9.837c0,5.425,4.496,9.838,10.023,9.838h13.576V119.253z"/>
			</g>
			<g>
				<polygon fill="#282D33" points="112.897,119.253 100.668,119.253 100.668,115.253 108.897,115.253 108.897,95.578 
					87.663,95.578 87.663,91.578 112.897,91.578 				"/>
			</g>
		</g>
		<g>
			<rect x="100.668" y="104.089" fill="#282D33" width="10.231" height="4"/>
		</g>
		<g>
			<rect x="26.23" y="3.14" fill="#282D33" width="4" height="89.706"/>
		</g>
	</g>
	<g>
		<g>
			<path fill="none" stroke="#282D33" stroke-width="4" d="M39.463,57.325"/>
		</g>
		<g>
			<path fill="#282D33" d="M87.539,105.417h-4v-10.57l0.814-0.6c2.922-2.151,4.598-5.429,4.598-8.993V55.218h4v30.036
				c0,4.507-1.96,8.67-5.412,11.573V105.417z"/>
		</g>
		<g>
			<path fill="#282D33" d="M62.509,105.417h-4v-5.859c-2.295-0.9-4.791-2.442-5.126-2.651l-0.261-0.163L37.95,78.991l-0.001-13.104
				l-0.104-1.518l0.104-0.037v-9.821l1.808-0.175c0.111-0.011,0.199-0.019,2.732-0.027c2.168,0,4.17,0.708,5.782,1.902l0.002-0.997
				l4,0.006l-0.029,21.222l-3.998,0.082l-0.103-2.426l-0.002-10.265c0-3.046-2.533-5.525-5.646-5.525c-0.001,0-0.229,0-0.546,0.002
				v7.267l0.21,1.513l-0.21,0.073v10.351l13.809,16.156c1.147,0.695,3.712,2.135,5.217,2.496l1.533,0.367V105.417z"/>
		</g>
		<g>
			<g>
				<polygon fill="#282D33" points="94.301,128 90.301,128 90.301,107.945 52.767,107.945 52.767,128 48.767,128 48.767,103.945 
					94.301,103.945 				"/>
			</g>
		</g>
		<g>
			<path fill="#282D33" d="M92.951,55.391h-4V37.512c0-1.622-1.354-2.94-3.019-2.94c-1.662,0-3.015,1.319-3.015,2.94v17.879h-4
				V37.512c0-3.827,3.146-6.94,7.015-6.94c3.87,0,7.019,3.113,7.019,6.94V55.391z"/>
		</g>
		<g>
			<path fill="#282D33" d="M82.744,55.391h-4V26.786c0-1.62-1.354-2.938-3.017-2.938s-3.017,1.318-3.017,2.938V55.39h-4V26.786
				c0-3.826,3.147-6.938,7.017-6.938s7.017,3.112,7.017,6.938V55.391z"/>
		</g>
		<g>
			<path fill="#282D33" d="M72.537,55.391h-4V21.728c0-1.621-1.354-2.939-3.017-2.939c-1.662,0-3.016,1.318-3.016,2.939v33.663h-4
				V21.728c0-3.826,3.147-6.939,7.016-6.939c3.869,0,7.017,3.113,7.017,6.939V55.391z"/>
		</g>
		<g>
			<path fill="#282D33" d="M62.332,55.391h-4V30.275c0-1.621-1.353-2.939-3.015-2.939c-1.664,0-3.018,1.318-3.018,2.939v25.116h-4
				V30.275c0-3.826,3.148-6.939,7.018-6.939c3.868,0,7.015,3.113,7.015,6.939V55.391z"/>
		</g>
	</g>
</g>
</svg>
